<svg width="17" height="21" viewBox="0 0 17 21" fill="none" xmlns="http://www.w3.org/2000/svg">
<g clip-path="url(#clip0_245_480)">
<path fill-rule="evenodd" clip-rule="evenodd" d="M8.36195 19.6306C8.75714 19.6306 15.8184 12.086 15.8184 7.96791C15.8184 3.84983 12.48 0.511475 8.36195 0.511475C4.24387 0.511475 0.905518 3.84983 0.905518 7.96791C0.905518 12.086 7.96677 19.6306 8.36195 19.6306ZM8.36196 11.6974C10.4498 11.6974 12.1424 10.0048 12.1424 7.91692C12.1424 5.82905 10.4498 4.1365 8.36196 4.1365C6.2741 4.1365 4.58155 5.82905 4.58155 7.91692C4.58155 10.0048 6.2741 11.6974 8.36196 11.6974Z" fill="#1DAEEF"/>
<path fill-rule="evenodd" clip-rule="evenodd" d="M0.905518 7.96791C0.905518 12.086 7.96677 19.6306 8.36195 19.6306V11.6974C6.27409 11.6973 4.58155 10.0048 4.58155 7.91692C4.58155 5.82906 6.27409 4.13651 8.36195 4.1365V0.511475C4.24387 0.511475 0.905518 3.84983 0.905518 7.96791Z" fill="#3EC3FF"/>
</g>
<defs>
<clipPath id="clip0_245_480">
<rect width="16" height="20" fill="white" transform="translate(0.799805 0.316406)"/>
</clipPath>
</defs>
</svg>
